<?xml version="1.0" encoding="UTF-8" standalone="no"?>
<svg
   xmlns:dc="http://purl.org/dc/elements/1.1/"
   xmlns:cc="http://creativecommons.org/ns#"
   xmlns:rdf="http://www.w3.org/1999/02/22-rdf-syntax-ns#"
   xmlns:svg="http://www.w3.org/2000/svg"
   xmlns="http://www.w3.org/2000/svg"
   xmlns:sodipodi="http://sodipodi.sourceforge.net/DTD/sodipodi-0.dtd"
   xmlns:inkscape="http://www.inkscape.org/namespaces/inkscape"
   sodipodi:docname="lgbg.svg"
   inkscape:version="1.0 (4035a4fb49, 2020-05-01)"
   id="svg8"
   version="1.1"
   viewBox="0 0 600 500"
   height="500mm"
   width="600mm">
  <defs
     id="defs2" />
  <sodipodi:namedview
     inkscape:window-maximized="1"
     inkscape:window-y="-8"
     inkscape:window-x="-8"
     inkscape:window-height="705"
     inkscape:window-width="1366"
     showgrid="false"
     inkscape:document-rotation="0"
     inkscape:current-layer="layer1"
     inkscape:document-units="mm"
     inkscape:cy="441.90012"
     inkscape:cx="386.33583"
     inkscape:zoom="0.12374369"
     inkscape:pageshadow="2"
     inkscape:pageopacity="0.0"
     borderopacity="1.0"
     bordercolor="#666666"
     pagecolor="#ffffff"
     id="base" />
  <metadata
     id="metadata5">
    <rdf:RDF>
      <cc:Work
         rdf:about="">
        <dc:format>image/svg+xml</dc:format>
        <dc:type
           rdf:resource="http://purl.org/dc/dcmitype/StillImage" />
        <dc:title></dc:title>
      </cc:Work>
    </rdf:RDF>
  </metadata>
  <g
     id="layer1"
     inkscape:groupmode="layer"
     inkscape:label="Layer 1">
    <path
       sodipodi:nodetypes="ccccc"
       id="path839"
       d="M 601.76945,500.05605 608.7616,0.13482956 0.15786606,0.17340842 2.3141801,498.78411 Z"
       style="fill:#0f0f13;fill-opacity:1;stroke:#000000;stroke-width:0.579643px;stroke-linecap:butt;stroke-linejoin:miter;stroke-opacity:1" />
    <path
       sodipodi:nodetypes="ccsscc"
       id="path841"
       d="M 608.7616,0.13482956 520.43032,0.26846435 C 519.94515,-2.1088886 478.16618,30.89421 523.15556,45.5149 c 25.52019,8.293574 17.79497,3.040812 46.86905,9.260418 28.23774,6.040693 37.79762,34.584821 37.79762,34.584821 z"
       style="fill:#00ff6c;fill-opacity:0.9;stroke:#000000;stroke-width:0.264583px;stroke-linecap:butt;stroke-linejoin:miter;stroke-opacity:1" />
    <path
       d="m 165.95078,491.95935 a 46.638535,28.865108 0 0 1 -46.53883,28.86504 46.638535,28.865108 0 0 1 -46.737818,-28.74161 46.638535,28.865108 0 0 1 46.338968,-28.98794 46.638535,28.865108 0 0 1 46.93597,28.61766 l -46.63683,0.24685 z"
       sodipodi:arc-type="slice"
       sodipodi:end="6.2746332"
       sodipodi:start="0"
       sodipodi:ry="28.865108"
       sodipodi:rx="46.638535"
       sodipodi:cy="491.95935"
       sodipodi:cx="119.31224"
       sodipodi:type="arc"
       id="path859"
       style="fill:#00ff6c;fill-opacity:0.9;stroke:#e29101;stroke-width:0" />
    <ellipse
       ry="35.529762"
       rx="37.419643"
       cy="239.35143"
       cx="568.40149"
       id="path872"
       style="fill:#00ff6a;fill-opacity:0.9;stroke:#e29101;stroke-width:0" />
    <path
       d="m 656.84794,236.83531 a 42.52232,55.940475 0 0 1 -42.4314,55.94035 42.52232,55.940475 0 0 1 -42.61285,-55.70114 42.52232,55.940475 0 0 1 42.24919,-56.17853 42.52232,55.940475 0 0 1 42.79351,55.46092 l -42.52077,0.4784 z"
       sodipodi:arc-type="slice"
       sodipodi:end="6.2746332"
       sodipodi:start="0"
       sodipodi:ry="55.940475"
       sodipodi:rx="42.52232"
       sodipodi:cy="236.83531"
       sodipodi:cx="614.32562"
       sodipodi:type="arc"
       id="path866"
       style="fill:#6e6f72;fill-opacity:0.9;stroke:#e29101;stroke-width:0" />
  </g>
</svg>
